<svg version="1.1" id="Layer_1" xmlns="http://www.w3.org/2000/svg" xmlns:xlink="http://www.w3.org/1999/xlink" x="0px" y="0px"
	 width="100%" viewBox="0 0 496 496" enable-background="new 0 0 496 496" xml:space="preserve">
<path fill="#000000" opacity="1.000000" stroke="none" 
	d="
M207.468658,497.000000 
	C192.942749,490.841522 179.647812,482.732635 163.318634,483.197235 
	C150.195312,483.570648 137.027298,482.694916 124.035057,480.454803 
	C108.927948,477.850037 91.945488,467.603760 90.993233,447.153320 
	C90.352257,433.388214 83.320793,426.416077 70.413139,422.890839 
	C59.534927,419.919922 48.622189,416.872162 37.979458,412.925110 
	C26.012924,408.487122 21.148710,399.226898 19.771593,387.740601 
	C18.287933,375.365601 17.944546,362.858429 16.738779,350.444336 
	C15.533776,338.038055 13.871901,325.676270 12.421377,313.293671 
	C11.808320,308.060242 10.363591,302.799408 13.067766,297.683594 
	C13.712622,296.463623 12.769156,295.479370 12.229017,294.470428 
	C6.724996,284.189453 5.583796,273.386597 8.099805,262.049622 
	C10.152912,252.798462 11.935388,243.487564 13.882072,234.212418 
	C16.121925,223.540451 23.173012,216.420654 32.150326,210.045288 
	C21.175768,206.677032 17.510620,198.617020 17.711836,188.320801 
	C17.828560,182.347977 21.184034,177.584518 24.821939,173.231140 
	C30.803053,166.073685 37.005707,159.095734 43.267460,152.180176 
	C48.465412,146.439514 53.032032,140.334320 55.312584,132.838959 
	C57.878658,124.405212 63.379860,118.992500 71.468887,115.684669 
	C77.625145,113.167198 83.486488,109.932457 90.069580,108.512352 
	C91.708359,108.158836 93.577454,107.357574 94.624237,109.109550 
	C95.953064,111.333565 93.737968,112.450951 92.414299,113.458107 
	C88.177376,116.681938 83.896149,119.872009 79.431870,122.766411 
	C73.816467,126.407143 69.288147,130.924713 66.848999,137.212616 
	C62.039623,149.610794 53.821148,159.574966 44.644188,168.895889 
	C41.955849,171.626404 39.392879,174.479889 36.736561,177.242493 
	C31.425388,182.766220 30.070917,189.331512 31.556973,196.658264 
	C32.970963,203.629745 37.354729,205.421555 43.148304,201.308380 
	C50.115574,196.361938 56.616405,190.739807 61.719093,183.953720 
	C71.127937,171.440857 84.053711,167.041916 98.816345,166.915237 
	C112.801369,166.795212 126.791687,167.460983 140.781464,167.645721 
	C146.881561,167.726303 147.893402,165.971268 145.381454,160.380630 
	C139.760590,147.870728 129.901550,142.758636 116.030083,145.929443 
	C105.562592,148.322174 95.371788,149.531235 85.378166,144.382294 
	C83.390846,143.358383 83.368134,143.402466 81.139771,140.714127 
	C86.007973,137.666458 91.650322,138.016342 96.842186,136.770370 
	C101.918457,135.552124 107.340385,135.719345 112.745796,133.015427 
	C104.092316,122.434875 102.085678,111.314804 107.875237,98.978401 
	C111.188347,100.291107 111.604065,102.954292 112.654892,105.129524 
	C115.914558,111.877029 119.168091,118.628105 122.343750,125.415352 
	C124.271095,129.534637 127.289314,132.324081 131.443466,134.220306 
	C144.061859,139.980179 151.677856,149.616348 153.369537,163.567123 
	C153.753342,166.732147 155.517807,168.175308 158.464661,168.790558 
	C166.924469,170.556854 175.313828,172.708786 183.821350,174.188980 
	C205.599106,177.977997 217.466644,191.550980 222.312057,212.323929 
	C222.916397,214.914764 223.571609,217.493790 224.209610,220.076721 
	C226.958054,231.203629 230.297592,233.954285 241.787949,234.676605 
	C247.943039,235.063553 253.993195,236.129379 259.988220,237.572891 
	C267.689575,239.427307 274.383698,242.879150 278.883423,249.640350 
	C280.702545,252.373779 282.716583,252.857758 284.925598,250.563385 
	C291.831818,243.390228 299.791931,244.661835 308.061676,247.281082 
	C314.453949,249.305664 320.364777,252.391998 326.321930,255.355713 
	C333.181000,258.768127 339.957794,259.805054 347.515991,257.332550 
	C357.793427,253.970474 367.961304,256.831116 377.961395,259.407776 
	C397.986450,264.567474 416.215637,273.928680 434.053986,284.060028 
	C438.438629,286.550323 442.819763,288.095795 447.780151,287.671112 
	C457.837402,286.810028 465.608643,291.283478 471.968018,298.377197 
	C484.490417,312.345612 489.326691,328.848480 486.869232,347.397552 
	C486.179230,352.605652 485.373779,357.347717 491.864380,359.608063 
	C494.173279,360.412140 494.251373,362.916077 494.355194,365.174988 
	C494.813324,375.141876 491.813660,384.603821 489.994904,394.206787 
	C488.412567,402.561676 487.450073,410.973450 486.377350,419.380615 
	C485.784668,424.025696 484.202606,428.093903 480.704071,431.270752 
	C469.254028,441.667908 456.968231,450.899567 441.638428,454.530579 
	C433.267151,456.513458 424.557587,457.081024 415.993286,458.232635 
	C407.186462,459.416840 399.168579,462.634155 392.453247,468.390900 
	C374.164429,484.069061 352.076691,489.370239 329.024933,492.438354 
	C315.825775,494.195068 302.784821,492.367249 289.666992,491.668579 
	C280.640289,491.187836 271.834412,492.947845 263.218994,496.723328 
	C244.645767,497.000000 226.291550,497.000000 207.468658,497.000000 
M245.266693,372.639191 
	C245.541580,380.975342 241.956390,387.873810 236.789276,393.953766 
	C229.405441,402.641998 220.309753,408.986694 209.208130,412.033966 
	C204.972412,413.196594 201.243057,412.313080 199.259979,407.741882 
	C197.265915,403.145355 199.665298,400.442505 203.316040,398.366211 
	C207.513519,395.979034 211.648666,393.410431 216.056030,391.480408 
	C223.288574,388.313110 227.112717,382.704315 228.903412,375.345520 
	C229.847626,371.465302 230.585251,367.561188 230.691986,363.544647 
	C231.158524,345.991455 225.718582,329.759399 219.568130,313.692169 
	C217.519714,308.340973 214.518097,304.059082 209.394577,300.683472 
	C197.449326,292.813354 187.193771,282.513306 174.557251,275.584106 
	C164.482498,270.059631 154.210999,264.894287 144.035522,259.552948 
	C140.732529,257.819183 137.776520,255.692551 136.337173,252.049576 
	C135.050858,248.793915 135.526810,245.819611 138.008926,243.296478 
	C140.401215,240.864639 143.246246,240.508469 146.259613,241.923615 
	C148.209503,242.839340 150.127792,243.870956 151.922516,245.058746 
	C156.091141,247.817642 160.307510,250.463852 164.699707,252.877838 
	C175.494202,258.810577 186.537231,264.336914 196.408844,271.836884 
	C201.620132,275.796173 206.654907,279.965851 211.952072,284.472473 
	C211.130676,266.899902 215.951523,251.328781 226.204727,237.501892 
	C218.973541,229.045837 213.992859,219.556793 209.137604,210.124207 
	C203.409531,198.996063 194.840439,191.809830 183.104813,188.368484 
	C157.527176,180.868149 131.393997,177.286209 104.722969,178.444901 
	C94.645561,178.882690 84.942917,181.416275 78.549438,189.831772 
	C73.953850,195.880768 68.748802,201.151382 63.098137,206.061081 
	C52.912125,214.911377 42.605190,223.622757 32.327538,232.367203 
	C29.152761,235.068375 27.352837,238.365753 26.603291,242.543839 
	C24.723669,253.021133 22.871893,263.528076 20.313219,273.850677 
	C18.435167,281.427429 21.635654,286.689819 26.415941,291.631989 
	C28.631872,293.922943 31.436060,295.440857 34.242416,296.942657 
	C41.318600,300.729462 48.818130,303.461517 56.324425,306.233368 
	C80.820679,315.279175 95.778206,332.081146 98.413681,358.694824 
	C99.183380,366.467407 102.751602,371.767395 110.180550,375.122345 
	C126.660194,382.564697 143.949783,384.213928 161.489380,382.321991 
	C176.016479,380.755005 190.306900,367.084564 191.473480,354.655884 
	C192.344147,345.379730 191.771652,336.084900 190.078293,326.813629 
	C188.409424,317.676514 183.297211,313.006775 174.367447,311.243195 
	C156.428726,307.700378 138.534622,303.948029 120.753105,299.615601 
	C111.100883,297.263855 103.381424,292.580719 96.544106,285.608307 
	C85.684860,274.534454 84.744255,261.928223 90.623062,248.780701 
	C99.522316,228.878235 113.953148,213.642868 132.787231,202.705032 
	C148.285660,193.704361 166.423264,196.021729 179.293747,208.332596 
	C181.461060,210.405670 183.706268,212.397491 185.865936,214.478302 
	C192.464325,220.835724 199.046005,227.216370 204.388611,234.717972 
	C206.496979,237.678345 206.714035,240.177643 202.577713,241.680252 
	C192.357361,245.393005 182.505341,242.735901 175.605698,234.297836 
	C172.865631,230.946823 170.277328,227.449432 167.314133,224.307068 
	C155.459564,211.735703 142.415344,209.660706 127.207642,218.073959 
	C111.224625,226.916153 102.482956,240.689560 99.742943,258.669525 
	C97.620827,272.594818 102.673302,282.457397 115.571404,287.992157 
	C118.012833,289.039856 120.546227,289.905365 123.092300,290.671844 
	C140.396194,295.881287 158.421432,296.888306 176.136520,299.704407 
	C182.099945,300.652405 188.133850,301.527100 192.246811,306.606201 
	C199.008987,314.956757 203.662247,324.136597 203.354126,335.298492 
	C203.161057,342.292938 203.330093,349.297211 203.323578,356.297058 
	C203.317078,363.275604 200.907028,369.219849 196.107208,374.367615 
	C188.166306,382.884216 178.839722,388.821198 167.372772,391.433929 
	C160.438141,393.013916 160.334549,393.599884 163.291229,400.189545 
	C165.130829,404.289520 166.532272,408.516357 167.843094,412.830963 
	C170.193741,420.568146 173.335083,428.104340 182.297226,430.521545 
	C192.994003,433.406708 202.733353,432.839722 212.645386,426.173126 
	C227.849304,415.947418 242.359238,403.975800 261.248596,400.522766 
	C263.945404,400.029755 265.124115,397.604370 266.283234,395.330017 
	C272.969208,382.210907 274.490631,368.951691 268.686829,354.939758 
	C262.704620,340.497070 256.934204,325.966553 253.446304,310.604889 
	C250.347321,296.956024 253.378326,285.286255 262.869354,275.184418 
	C267.972382,269.752991 273.161957,264.402954 278.709167,258.601318 
	C275.528442,255.950485 272.562622,253.826950 270.008575,251.289017 
	C259.770752,241.115738 247.744507,242.542999 235.412079,245.703339 
	C233.446823,246.206940 232.712326,247.840210 231.833557,249.540863 
	C222.443939,267.712372 223.251282,286.790985 228.470657,305.506744 
	C234.594772,327.466766 240.743896,349.382294 245.266693,372.639191 
M250.354645,436.778625 
	C255.928986,432.545685 262.639465,430.991760 269.072052,428.731750 
	C291.215393,420.952087 311.179474,409.836243 327.215179,392.144958 
	C338.926086,379.225006 340.110443,364.675964 335.959167,348.806641 
	C335.435364,346.804169 334.151886,345.336731 332.824371,343.797729 
	C322.746643,332.114502 318.153625,318.800385 320.213318,303.210571 
	C321.579590,292.869141 324.326965,283.026855 328.581757,273.558716 
	C329.458313,271.608185 330.246765,269.745819 327.482086,268.662018 
	C318.816467,265.265015 310.441772,260.929626 301.047455,259.796051 
	C295.769196,259.159149 291.172180,259.833466 287.660553,265.050781 
	C281.994690,273.468750 275.621857,281.418488 269.409515,289.459290 
	C260.617920,300.838562 259.131073,313.299744 263.490204,326.735321 
	C265.241211,332.132233 267.305237,337.395752 269.929474,342.433533 
	C273.475006,349.239929 276.647705,356.213806 278.953033,363.543640 
	C280.907898,369.759186 282.377472,376.139832 281.823120,382.670288 
	C280.669769,396.258209 273.718597,405.430542 260.716797,410.244293 
	C248.318390,414.834625 237.043686,421.363495 226.670715,429.801239 
	C207.498245,445.396729 184.118683,445.750183 164.453384,431.457153 
	C161.771698,429.508057 160.023956,429.103363 158.070267,432.302887 
	C154.666977,437.876282 149.444962,439.180237 143.310471,437.947906 
	C141.522980,437.588806 139.691177,437.444519 137.876740,437.226410 
	C132.597336,436.591827 127.311661,436.006287 122.039375,435.317780 
	C120.668396,435.138763 119.387276,434.466095 119.258636,432.887756 
	C119.121758,431.208374 120.557007,430.642426 121.784378,430.215302 
	C124.452660,429.286743 127.155243,428.436432 129.885101,427.709167 
	C136.304245,425.999146 142.974487,425.318481 149.188766,422.729553 
	C152.877869,421.192657 154.461700,419.140350 152.880951,415.029663 
	C151.151245,410.531586 149.540176,405.939178 148.463974,401.253174 
	C147.523987,397.160339 145.391434,395.590576 141.317932,395.116974 
	C132.737930,394.119324 124.169640,392.942535 115.844879,390.393951 
	C101.295113,385.939636 91.603165,376.989502 88.394997,361.703064 
	C87.678932,358.291077 86.479080,354.983459 85.667961,351.588104 
	C81.845238,335.586151 72.363136,324.774567 56.750858,319.223480 
	C49.697475,316.715576 42.842812,313.638885 35.938076,310.725250 
	C26.891388,306.907806 27.202513,307.064392 21.778711,315.163269 
	C17.769886,321.149261 17.091415,327.101471 20.846218,332.915710 
	C30.244268,347.468475 34.385380,363.467804 35.449482,380.540283 
	C36.039349,390.004150 39.755268,397.035492 50.304794,398.856842 
	C54.496918,399.580658 58.463451,401.688354 62.491772,403.270172 
	C78.710999,409.639221 90.186340,420.802094 96.523926,437.116791 
	C97.729187,440.219452 99.243965,443.247223 100.047783,446.452057 
	C102.524719,456.327728 109.140366,461.694672 118.640671,463.825073 
	C136.443665,467.817261 153.886246,473.436218 172.416840,474.013214 
	C185.018692,474.405579 195.965210,480.738556 207.069809,486.081604 
	C209.728958,487.361115 212.084427,489.451355 215.323547,489.282104 
	C228.145020,488.612122 240.889496,487.657776 253.082825,483.012665 
	C260.140625,480.323975 267.540222,478.776550 275.127930,479.831451 
	C285.847290,481.321716 296.565491,482.735931 307.379303,483.291931 
	C317.516968,483.813171 327.760284,484.880829 337.749298,482.810608 
	C352.702972,479.711517 367.223541,474.430481 379.529480,465.553589 
	C397.961792,452.257507 418.742676,444.541687 439.606110,436.667969 
	C448.020905,433.492249 456.408844,430.206665 464.258728,425.779266 
	C468.330353,423.482819 472.710663,420.899139 472.737183,415.489258 
	C472.804779,401.689423 476.154755,388.471283 479.268494,375.193024 
	C480.063538,371.802704 479.900421,368.454071 477.807495,365.612610 
	C473.243378,359.416046 466.453979,356.372437 459.228943,352.108948 
	C459.613007,362.947174 454.704742,369.707428 446.878418,374.607880 
	C444.504913,376.094025 444.168854,378.117676 444.182190,380.568115 
	C444.230255,389.400726 443.798401,398.257721 444.327118,407.058716 
	C444.717529,413.558044 442.620575,417.769653 437.326721,421.700684 
	C413.159851,439.646088 386.868134,452.618530 357.020325,457.809753 
	C351.692780,458.736328 346.269440,458.165588 341.157471,461.295532 
	C321.774048,473.163422 300.403992,475.825775 278.616180,471.351807 
	C265.490356,468.656494 253.320129,468.491974 241.204483,474.222809 
	C233.469009,477.881744 225.569504,478.064148 217.349716,475.869507 
	C207.291428,473.183990 198.973434,467.353943 190.532043,461.721985 
	C188.064682,460.075836 185.626221,459.030151 182.627640,459.359467 
	C177.668686,459.904022 172.706451,460.441650 167.733948,460.835388 
	C152.799149,462.017761 137.862717,463.417419 122.886826,461.369934 
	C109.317635,459.514709 96.244614,443.019806 97.594498,429.423370 
	C97.939201,425.951447 98.283592,422.477722 98.732689,419.018402 
	C99.320694,414.489166 97.577522,411.449646 93.521614,409.256927 
	C87.339874,405.914978 81.903305,401.466736 76.725601,396.739594 
	C65.978249,386.927551 64.083908,372.275391 71.952744,360.113037 
	C73.127808,358.296844 74.397484,356.134338 76.858253,356.392181 
	C79.452240,356.664032 79.925194,359.105988 80.393906,361.246918 
	C80.748795,362.867920 81.076996,364.496185 81.362564,366.130737 
	C84.860664,386.153198 81.575104,386.431702 101.362892,398.828461 
	C110.499413,404.552338 112.261086,411.137848 109.279366,421.708405 
	C108.296921,425.191315 106.865395,428.710876 107.854073,432.424927 
	C109.917046,440.174561 124.231476,451.605560 132.339661,451.674683 
	C157.159134,451.886292 181.995773,451.408356 206.795227,452.179810 
	C223.344360,452.694672 237.712082,448.710236 250.354645,436.778625 
M420.733246,400.165222 
	C415.534454,407.333374 408.711487,412.556366 399.998962,413.882294 
	C384.013000,416.315125 368.359375,419.864166 352.978638,424.819946 
	C349.491241,425.943634 345.699493,425.676727 342.180267,424.238464 
	C337.386261,422.279236 335.773163,417.985413 337.746918,413.246368 
	C339.659241,408.654999 343.760895,408.926605 347.468384,408.877808 
	C361.622955,408.691345 375.746185,410.184387 389.916016,409.751587 
	C401.035309,409.411896 409.809448,404.670380 416.091431,395.659698 
	C422.125427,387.004822 424.596680,377.046906 426.104706,366.692169 
	C428.274109,351.796387 422.222015,342.199219 407.662384,338.312073 
	C398.473267,335.858734 389.628571,332.396912 380.926056,328.617310 
	C375.150085,326.108734 370.188690,322.459656 367.863861,316.238800 
	C366.502930,312.597229 365.086182,308.375244 368.556091,305.567749 
	C372.201538,302.618195 376.520416,303.797699 380.062256,306.607330 
	C383.449310,309.294220 386.605469,312.270508 389.897461,315.079376 
	C393.176056,317.876831 396.066467,321.253479 400.234680,322.801270 
	C407.505524,325.501129 413.723328,329.896698 420.060120,334.249146 
	C431.192444,341.895386 434.246490,352.532623 432.716888,365.194336 
	C432.487061,367.096771 431.911682,369.022552 432.932068,370.883331 
	C447.279816,365.880951 451.677368,355.592529 445.272278,342.591370 
	C445.125061,342.292572 444.975525,341.993530 444.804688,341.707977 
	C437.475800,329.456085 431.652252,316.775787 431.369019,302.043701 
	C431.268280,296.805481 428.191284,292.825195 423.130066,290.448242 
	C415.295380,286.768768 407.573242,282.841797 399.878815,278.873444 
	C385.717163,271.569611 370.894989,267.232941 354.777557,268.297546 
	C347.496307,268.778534 341.653809,271.664612 337.766510,278.046661 
	C335.245911,282.184845 333.187225,286.527832 331.500610,291.073975 
	C328.518494,299.112183 327.241119,307.499542 326.446960,315.953369 
	C325.595215,325.020416 331.346008,330.318817 337.963165,334.991913 
	C343.873413,339.165771 348.296631,344.442810 349.806641,351.694733 
	C350.768677,356.314819 350.382019,360.940063 349.527496,365.580322 
	C349.174561,367.496857 348.264191,370.090790 351.613922,370.741486 
	C365.470490,373.433075 379.274139,377.020203 393.517273,373.322845 
	C396.889709,372.447418 399.607513,373.205841 400.865509,376.594635 
	C402.149139,380.052460 400.811462,382.652374 397.636444,384.556702 
	C392.108765,387.872040 386.332642,389.136749 379.948151,387.685913 
	C373.182343,386.148438 367.342560,382.549072 361.165131,379.681366 
	C354.170685,376.434326 346.766907,377.505432 344.187592,382.440308 
	C337.302246,395.613525 327.705505,406.591370 317.183136,416.888336 
	C315.971344,418.074158 314.154510,419.044556 314.333862,421.664490 
	C319.436340,421.083862 322.690582,424.383606 325.993591,427.415375 
	C329.058411,430.228577 332.193756,433.055359 334.765686,436.298370 
	C342.832397,446.469910 353.437225,447.571472 365.017578,445.091156 
	C386.510162,440.487732 405.564392,430.651733 423.815826,418.579926 
	C436.958588,409.887085 440.160461,397.960541 438.684021,383.598145 
	C438.352570,380.373871 435.703888,379.300720 432.879364,381.154907 
	C430.728119,382.567078 429.455566,384.777527 428.327240,387.013672 
	C426.150970,391.326721 424.051239,395.677673 420.733246,400.165222 
M292.237518,434.943329 
	C268.423584,443.176666 243.843338,449.276794 221.026627,460.382690 
	C224.915573,460.382690 228.733139,460.507843 232.540161,460.360474 
	C247.106125,459.796631 261.599243,458.112061 276.232574,460.691101 
	C291.727875,463.422058 307.360718,462.856689 322.791962,459.543488 
	C327.101379,458.618195 331.509399,457.650421 335.767151,454.214386 
	C329.951691,450.372742 327.226196,444.153290 322.271973,440.001862 
	C313.591492,432.727905 304.405853,427.155273 292.237518,434.943329 
M457.197937,342.365326 
	C457.453583,343.527985 457.785431,344.781372 458.905487,345.292084 
	C464.833557,347.995056 470.806793,350.598907 477.575104,353.596161 
	C473.570343,342.732239 472.274811,332.450134 469.719849,322.475403 
	C465.821991,307.258118 452.543488,302.183990 441.000183,295.044037 
	C441.295807,299.315186 442.182251,303.154785 442.981323,307.012512 
	C445.548218,319.404755 452.140656,330.167633 457.197937,342.365326 
z"/>
<path fill="#000000" opacity="1.000000" stroke="none" 
	d="
M40.532600,250.930939 
	C48.404449,250.549911 49.753403,251.131882 51.519581,258.391541 
	C55.781994,275.911713 66.021492,288.125183 82.111137,296.234955 
	C94.864441,302.663147 104.505638,313.429565 115.366135,322.468750 
	C122.536842,328.436890 129.618927,334.504303 137.590363,339.411346 
	C142.577637,342.481445 147.766907,344.954010 153.667877,345.894226 
	C158.405533,346.649109 160.626709,349.822205 160.239120,354.375366 
	C159.819412,359.305908 157.124741,361.986481 152.297806,362.272614 
	C136.481644,363.210175 124.774864,355.920654 115.739708,343.672546 
	C108.728043,334.167511 102.959190,323.815399 95.560982,314.531403 
	C89.991920,307.542725 82.804047,302.848328 75.384094,298.500092 
	C65.264679,292.569885 56.004284,285.568512 47.374050,277.728760 
	C42.514343,273.314178 39.215141,267.654449 36.731758,261.575165 
	C34.923264,257.148010 35.442776,253.406586 40.532600,250.930939 
z"/>
<path fill="#000000" opacity="1.000000" stroke="none" 
	d="
M302.583160,386.120300 
	C302.057617,387.852051 301.590179,389.266754 299.850189,388.908356 
	C298.312408,388.591614 297.934601,387.122437 297.810303,385.799347 
	C297.080231,378.027985 296.100494,370.260803 295.835144,362.470734 
	C295.597748,355.501282 293.891876,349.065094 291.187592,342.721832 
	C286.387146,331.461731 283.139709,319.813019 283.707031,307.412048 
	C284.004181,300.917145 286.503326,295.406403 292.087555,291.772705 
	C297.068695,288.531464 301.046082,290.407227 302.462402,296.219055 
	C303.251434,299.456909 302.660919,302.558136 301.768219,305.553802 
	C297.617462,319.482452 298.405426,333.538269 300.876343,347.531616 
	C303.116577,360.218170 304.161285,372.883240 302.583160,386.120300 
z"/>
</svg>